<svg xmlns="http://www.w3.org/2000/svg" width="32.804" height="28.336" viewBox="0 0 32.804 28.336">
  <g id="favourites_btn" transform="translate(2 2)">
    <g id="heart-svgrepo-com" transform="translate(0.001 -23.037)">
      <g id="합치기_13" data-name="합치기 13" transform="translate(7503.457 18336.301)" fill="none">
        <path d="M-7489.5-18289.033a39.327,39.327,0,0,1-6.894-4.592,24.813,24.813,0,0,1-4.8-5.17,12.211,12.211,0,0,1-2.261-6.766,7.712,7.712,0,0,1,7.7-7.7,7.71,7.71,0,0,1,6.706,3.916,7.708,7.708,0,0,1,6.7-3.916,7.709,7.709,0,0,1,7.7,7.7,12.176,12.176,0,0,1-2.261,6.766,24.793,24.793,0,0,1-4.8,5.17,39.548,39.548,0,0,1-6.894,4.592.956.956,0,0,1-.446.105A.941.941,0,0,1-7489.5-18289.033Z" stroke="none"/>
        <path d="M -7489.05419921875 -18288.927734375 C -7488.90283203125 -18288.927734375 -7488.7509765625 -18288.958984375 -7488.6083984375 -18289.033203125 C -7488.470703125 -18289.1015625 -7485.11572265625 -18290.7890625 -7481.71435546875 -18293.625 C -7479.69677734375 -18295.306640625 -7478.0791015625 -18297.048828125 -7476.916015625 -18298.794921875 C -7475.41357421875 -18301.046875 -7474.65478515625 -18303.322265625 -7474.65478515625 -18305.560546875 C -7474.65478515625 -18309.806640625 -7478.1064453125 -18313.263671875 -7482.353515625 -18313.263671875 C -7485.22119140625 -18313.263671875 -7487.73046875 -18311.681640625 -7489.05419921875 -18309.34765625 C -7490.3779296875 -18311.681640625 -7492.88720703125 -18313.263671875 -7495.759765625 -18313.263671875 C -7500.001953125 -18313.263671875 -7503.45849609375 -18309.806640625 -7503.45849609375 -18305.560546875 C -7503.45849609375 -18303.322265625 -7502.6953125 -18301.046875 -7501.197265625 -18298.794921875 C -7500.02978515625 -18297.048828125 -7498.41650390625 -18295.306640625 -7496.39404296875 -18293.625 C -7492.9931640625 -18290.7890625 -7489.642578125 -18289.1015625 -7489.5 -18289.033203125 C -7489.3623046875 -18288.958984375 -7489.2060546875 -18288.927734375 -7489.05419921875 -18288.927734375 M -7489.05419921875 -18286.927734375 C -7489.54052734375 -18286.927734375 -7490.015625 -18287.04296875 -7490.4296875 -18287.26171875 C -7490.9345703125 -18287.517578125 -7494.28857421875 -18289.265625 -7497.6748046875 -18292.08984375 C -7499.83251953125 -18293.8828125 -7501.57763671875 -18295.765625 -7502.85986328125 -18297.68359375 C -7504.5849609375 -18300.27734375 -7505.45849609375 -18302.92578125 -7505.45849609375 -18305.560546875 C -7505.45849609375 -18310.91015625 -7501.107421875 -18315.263671875 -7495.759765625 -18315.263671875 C -7493.2333984375 -18315.263671875 -7490.837890625 -18314.271484375 -7489.05419921875 -18312.56640625 C -7487.271484375 -18314.271484375 -7484.87744140625 -18315.263671875 -7482.353515625 -18315.263671875 C -7477.00537109375 -18315.263671875 -7472.65478515625 -18310.91015625 -7472.65478515625 -18305.560546875 C -7472.65478515625 -18302.91796875 -7473.52880859375 -18300.267578125 -7475.25244140625 -18297.685546875 C -7476.521484375 -18295.779296875 -7478.26513671875 -18293.896484375 -7480.43359375 -18292.087890625 C -7483.96142578125 -18289.146484375 -7487.41845703125 -18287.392578125 -7487.70458984375 -18287.248046875 C -7488.1220703125 -18287.03515625 -7488.57568359375 -18286.927734375 -7489.05419921875 -18286.927734375 Z" stroke="none" fill="#fff"/>
      </g>
    </g>
  </g>
</svg>
