<svg xmlns="http://www.w3.org/2000/svg" width="17" height="17" viewBox="0 0 17 17">
  <path id="cash_icon" d="M0,13.457v1.418C0,16.047,2.855,17,6.375,17s6.375-.953,6.375-2.125V13.457c-1.371.966-3.878,1.418-6.375,1.418S1.371,14.423,0,13.457ZM10.625,4.25C14.145,4.25,17,3.3,17,2.125S14.145,0,10.625,0,4.25.953,4.25,2.125,7.105,4.25,10.625,4.25ZM0,9.974v1.713c0,1.172,2.855,2.125,6.375,2.125s6.375-.953,6.375-2.125V9.974c-1.371,1.129-3.881,1.713-6.375,1.713S1.371,11.1,0,9.974Zm13.813.365C15.715,9.971,17,9.287,17,8.5V7.082a8.154,8.154,0,0,1-3.187,1.146ZM6.375,5.313C2.855,5.313,0,6.5,0,7.969s2.855,2.656,6.375,2.656S12.75,9.436,12.75,7.969,9.895,5.313,6.375,5.313Zm7.281,1.869C15.649,6.823,17,6.119,17,5.313V3.895a10.809,10.809,0,0,1-5.336,1.388A3.718,3.718,0,0,1,13.656,7.182Z" />
</svg>
