<svg xmlns="http://www.w3.org/2000/svg" width="23.996" height="23.996" viewBox="0 0 23.996 23.996">
  <g id="icon_full_screen" data-name="icon_full screen" transform="translate(-1344 -160)">
    <g id="减去_8" data-name="减去 8" transform="translate(1344.004 160)" fill="#6c698d">
      <path d="M19.993,24H16.314V22.077h3.758a2,2,0,0,0,2-2V16.319h1.92V20A4,4,0,0,1,19.993,24ZM7.677,24H4a4,4,0,0,1-4-4V16.319h1.92v3.757a2,2,0,0,0,2,2H7.677v1.918ZM0,14.591H0V4A4,4,0,0,1,4,0H7.677V1.92H3.916a2,2,0,0,0-2,2V7.68H0Zm23.994-6.91h-1.92V3.92a2,2,0,0,0-2-2H16.314V0h3.678a4,4,0,0,1,4,4V7.68Z" stroke="none"/>
      <path d="M 19.99260139465332 23.99580001831055 L 16.31430053710938 23.99580001831055 L 16.31430053710938 22.07699966430664 L 20.07270050048828 22.07699966430664 C 21.17539024353027 22.07699966430664 22.07250022888184 21.17948913574219 22.07250022888184 20.0762996673584 L 22.07250022888184 16.31879997253418 L 23.99220085144043 16.31879997253418 L 23.99220085144043 19.99620056152344 C 23.99220085144043 22.20158958435059 22.19799041748047 23.99580001831055 19.99260139465332 23.99580001831055 Z M 7.677000999450684 23.99580001831055 L 3.99600076675415 23.99580001831055 C 1.790610790252686 23.99580001831055 -0.003599157789722085 22.20158958435059 -0.003599157789722085 19.99620056152344 L -0.003599157789722085 16.31879997253418 L 1.916100859642029 16.31879997253418 L 1.916100859642029 20.0762996673584 C 1.916100859642029 21.17948913574219 2.813210725784302 22.07699966430664 3.915900945663452 22.07699966430664 L 7.677000999450684 22.07699966430664 L 7.677000999450684 23.99580001831055 Z M -0.001599157694727182 14.59078025817871 L -0.003599157789722085 14.59078025817871 L -0.003599157789722085 3.999599933624268 C -0.003599157789722085 1.794209957122803 1.790610790252686 9.155272095995315e-09 3.99600076675415 9.155272095995315e-09 L 7.677000999450684 9.155272095995315e-09 L 7.677000999450684 1.919700026512146 L 3.915900945663452 1.919700026512146 C 2.813210725784302 1.919700026512146 1.916100859642029 2.816809892654419 1.916100859642029 3.919500112533569 L 1.916100859642029 7.679699897766113 L -0.001799157704226673 7.679699897766113 L -0.001599157694727182 14.59078025817871 Z M 23.99220085144043 7.680699825286865 L 22.07250022888184 7.679699897766113 L 22.07250022888184 3.919500112533569 C 22.07250022888184 2.816809892654419 21.17539024353027 1.919700026512146 20.07270050048828 1.919700026512146 L 16.31430053710938 1.919700026512146 L 16.31430053710938 0.001000009127892554 L 19.99260139465332 9.155272095995315e-09 C 22.19799041748047 9.155272095995315e-09 23.99220085144043 1.794209957122803 23.99220085144043 3.999599933624268 L 23.99220085144043 7.680699825286865 Z" stroke="none" fill="#f5f5f5"/>
    </g>
    <g id="椭圆_64" data-name="椭圆 64" transform="translate(1344 166.695)" fill="#6c698d" stroke="#f5f5f5" stroke-width="2">
      <circle cx="1" cy="1" r="1" stroke="none"/>
      <circle cx="1" cy="1" fill="none"/>
    </g>
    <g id="椭圆_65" data-name="椭圆 65" transform="translate(1350.694 160)" fill="#6c698d" stroke="#f5f5f5" stroke-width="2">
      <circle cx="1" cy="1" r="1" stroke="none"/>
      <circle cx="1" cy="1" fill="none"/>
    </g>
    <g id="椭圆_66" data-name="椭圆 66" transform="translate(1359.302 160)" fill="#6c698d" stroke="#f5f5f5" stroke-width="2">
      <circle cx="1" cy="1" r="1" stroke="none"/>
      <circle cx="1" cy="1" fill="none"/>
    </g>
    <g id="椭圆_67" data-name="椭圆 67" transform="translate(1365.996 166.695)" fill="#6c698d" stroke="#f5f5f5" stroke-width="2">
      <circle cx="1" cy="1" r="1" stroke="none"/>
      <circle cx="1" cy="1" fill="none"/>
    </g>
    <g id="椭圆_68" data-name="椭圆 68" transform="translate(1365.996 175.301)" fill="#6c698d" stroke="#f5f5f5" stroke-width="2">
      <circle cx="1" cy="1" r="1" stroke="none"/>
      <circle cx="1" cy="1" fill="none"/>
    </g>
    <g id="椭圆_69" data-name="椭圆 69" transform="translate(1359.302 181.996)" fill="#6c698d" stroke="#f5f5f5" stroke-width="2">
      <circle cx="1" cy="1" r="1" stroke="none"/>
      <circle cx="1" cy="1" fill="none"/>
    </g>
    <g id="椭圆_70" data-name="椭圆 70" transform="translate(1350.694 181.996)" fill="#6c698d" stroke="#f5f5f5" stroke-width="2">
      <circle cx="1" cy="1" r="1" stroke="none"/>
      <circle cx="1" cy="1" fill="none"/>
    </g>
    <g id="椭圆_71" data-name="椭圆 71" transform="translate(1344 175.301)" fill="#6c698d" stroke="#f5f5f5" stroke-width="2">
      <circle cx="1" cy="1" r="1" stroke="none"/>
      <circle cx="1" cy="1" fill="none"/>
    </g>
  </g>
</svg>
