<svg xmlns="http://www.w3.org/2000/svg" width="27.506" height="23.24" viewBox="0 0 27.506 23.24">
  <g id="icon_Favourites" transform="translate(-0.694 -50.088)">
    <path id="합치기_13" data-name="합치기 13" d="M13.33,23.139a37.439,37.439,0,0,1-6.584-4.385A23.677,23.677,0,0,1,2.16,13.818,11.659,11.659,0,0,1,0,7.356,7.352,7.352,0,0,1,13.755,3.74,7.349,7.349,0,0,1,27.506,7.356a11.632,11.632,0,0,1-2.159,6.461,23.677,23.677,0,0,1-4.583,4.936,37.687,37.687,0,0,1-6.584,4.385.9.9,0,0,1-.426.1A.891.891,0,0,1,13.33,23.139Z" transform="translate(0.694 50.088)" />
  </g>
</svg>
