<svg xmlns="http://www.w3.org/2000/svg" width="18" height="18" viewBox="0 0 18 18">
  <path id="Sports_icon" d="M9,0a9,9,0,1,0,9,9A9.01,9.01,0,0,0,9,0Zm6.65,4.165h-.385a.383.383,0,0,0-.364.265l-.825,2.538-2.157.948L9.383,6.074V3.53l2.141-1.554a.383.383,0,0,0,.139-.428l-.122-.376A8.255,8.255,0,0,1,15.65,4.165ZM6.46,1.171l-.122.376a.383.383,0,0,0,.139.428l2.14,1.554V6.073L6.08,7.916,3.923,6.968,3.1,4.429a.382.382,0,0,0-.364-.265H2.35A8.262,8.262,0,0,1,6.46,1.171ZM.766,8.994l.322.234a.381.381,0,0,0,.45,0l2.12-1.54,2.157.948L6.8,11.647,5.491,13.2H2.829a.383.383,0,0,0-.364.265l-.119.365A8.176,8.176,0,0,1,.766,9S.766,9,.766,8.994Zm5.687,7.833.319-.233a.382.382,0,0,0,.14-.428l-.812-2.5,1.3-1.552H10.6l1.3,1.552-.812,2.5a.383.383,0,0,0,.14.428l.319.232a8.151,8.151,0,0,1-5.093,0Zm9.2-3-.119-.366a.383.383,0,0,0-.364-.264H12.509l-1.3-1.553.978-3.011,2.158-.948,2.12,1.539a.38.38,0,0,0,.45,0l.322-.234s0,0,0,.006A8.189,8.189,0,0,1,15.653,13.831Z" />
</svg>
