<svg id="idcard" xmlns="http://www.w3.org/2000/svg" width="32" height="22.975" viewBox="0 0 32 22.975">
  <path id="idcard-2" data-name="idcard" d="M984,63.121c.073-.236.13-.48.222-.709a2.942,2.942,0,0,1,2.83-1.837q4.218-.005,8.435,0h17.436A2.942,2.942,0,0,1,1015.9,62.8a3.717,3.717,0,0,1,.09.834q.013,8.421,0,16.843a2.938,2.938,0,0,1-3.044,3.062q-12.945.005-25.9,0a2.936,2.936,0,0,1-3-2.435A.5.5,0,0,0,984,81Zm16,1.473h9.838a.985.985,0,0,1,1.11.7.918.918,0,0,1-.7,1.14,2.215,2.215,0,0,1-.439.031H990.195a.961.961,0,1,1,0-1.874h9.8Zm6.553,5.023h3.375a.944.944,0,1,1-.009,1.875h-6.786a.944.944,0,1,1,.009-1.875q1.707,0,3.412,0Zm-.036,5.889h-3.375a.944.944,0,1,1-.009-1.875h6.848a.946.946,0,0,1,.994.841.937.937,0,0,1-.68.994,1.753,1.753,0,0,1-.439.037c-1.109,0-2.228,0-3.338,0Zm-.967,2.148c.815,0,1.638-.006,2.462,0a.93.93,0,0,1,.492,1.733,1.318,1.318,0,0,1-.573.132q-2.417.014-4.834,0a.943.943,0,0,1-1.021-.943.953.953,0,0,1,1.039-.928c.807,0,1.621,0,2.436,0Zm-15.071-2.674a3.482,3.482,0,1,1,5.227-.012c.212.165.433.319.635.5a4.942,4.942,0,0,1,1.741,3.641.945.945,0,0,1-1.021,1.085q-3.967.012-7.938,0a.956.956,0,0,1-1.026-1.112,4.963,4.963,0,0,1,2.238-3.992l.144-.109Zm5.521,3.3a3.044,3.044,0,0,0-3.064-2.137c-1.294.073-2.661,1.137-2.74,2.137Zm-2.909-4.036A1.58,1.58,0,1,0,991.5,72.67a1.58,1.58,0,0,0,1.586,1.572Z" transform="translate(-984 -60.572)" fill="#fa6e42" fill-rule="evenodd"/>
</svg>
